# xmcd
#
# Track frame offsets: 
#        150
#        26182
#        51767
#        99635
#        129048
#        172746
#        173046
#        205188
#        244835
#
# Disc length: 3923 seconds
#
# Revision: 0
# Processed by: cddbd v1.5.2PL0 Copyright (c) Steve Scherf et al.
# Submitted via: ExactAudioCopy v1.3
#
DISCID=6d0f5109
DTITLE=Carlos Johnson - Live At B.L.U.E.S. On Halsted
DYEAR=2007
DGENRE=Chicago Blues
TTITLE0=C.J.'s Swing
TTITLE1=Lisa
TTITLE2=I'll Play The Blues For You
TTITLE3=High Heel Sneakers
TTITLE4=I'm Cold And I'm Wondering
TTITLE5=Everyday I Have The Blues
TTITLE6=What's Going On
TTITLE7=Don't Throw Your Love on Me So Strong
TTITLE8=I Wonder Why
EXTD=
EXTT0=
EXTT1=
EXTT2=
EXTT3=
EXTT4=
EXTT5=
EXTT6=
EXTT7=
EXTT8=
PLAYORDER=
